<svg xmlns="http://www.w3.org/2000/svg" width="62" height="62" viewBox="0 0 62 62">
  <g id="Group_16" data-name="Group 16" transform="translate(-1711.049 -588)">
    <g id="Group_14" data-name="Group 14" transform="translate(1711.049 588)">
      <g id="Path_24" data-name="Path 24" fill="transparent">
        <path d="M 31 61 C 26.9495792388916 61 23.02086067199707 60.20693969726563 19.32295036315918 58.64286041259766 C 15.75069046020508 57.13191986083984 12.54226970672607 54.96866989135742 9.786800384521484 52.21319961547852 C 7.031330108642578 49.45772933959961 4.868080139160156 46.24930953979492 3.357140064239502 42.67705154418945 C 1.793059945106506 38.97914123535156 1 35.05041885375977 1 31 C 1 26.9495792388916 1.793059945106506 23.02086067199707 3.357140064239502 19.32295036315918 C 4.868080139160156 15.75069046020508 7.031330108642578 12.54226970672607 9.786800384521484 9.786800384521484 C 12.54226970672607 7.031330108642578 15.75069046020508 4.868080139160156 19.32295036315918 3.357140064239502 C 23.02086067199707 1.793059945106506 26.9495792388916 1 31 1 C 35.05041885375977 1 38.97914123535156 1.793059945106506 42.67705154418945 3.357140064239502 C 46.24930953979492 4.868080139160156 49.45772933959961 7.031330108642578 52.21319961547852 9.786800384521484 C 54.96866989135742 12.54226970672607 57.13191986083984 15.75069046020508 58.64286041259766 19.32295036315918 C 60.20693969726563 23.02086067199707 61 26.9495792388916 61 31 C 61 33.44321823120117 60.70545959472656 35.86959838867188 60.12458038330078 38.21176147460938 C 59.558349609375 40.49478149414063 58.71656036376953 42.71323013305664 57.62255859375 44.80548858642578 C 55.47143173217773 48.91955184936523 52.30593872070313 52.58053970336914 48.46831130981445 55.39268112182617 C 43.53784942626953 59.00870132446289 37.33427047729492 61 31 61 Z" stroke="none"/>
        <path d="M 31 2 C 27.08414077758789 2 23.28647994995117 2.7664794921875 19.71250152587891 4.278141021728516 C 16.25944137573242 5.738658905029297 13.15785980224609 7.829948425292969 10.49390029907227 10.49390029907227 C 7.829948425292969 13.15785980224609 5.738658905029297 16.25944137573242 4.278141021728516 19.71250152587891 C 2.7664794921875 23.28647994995117 2 27.08414077758789 2 31 C 2 34.91585922241211 2.7664794921875 38.71352005004883 4.278141021728516 42.28749847412109 C 5.738658905029297 45.74056243896484 7.829948425292969 48.84214019775391 10.49390029907227 51.50609970092773 C 13.15785980224609 54.17005157470703 16.25944137573242 56.2613410949707 19.71250152587891 57.72185897827148 C 23.28647994995117 59.2335205078125 27.08414077758789 60 31 60 C 37.12314987182617 60 43.11669921875 58.07746124267578 47.87722778320313 54.5860710144043 C 51.59223937988281 51.8637809753418 54.65568923950195 48.32147979736328 56.73638916015625 44.34213256835938 C 58.90195846557617 40.20046997070313 60 35.71153259277344 60 31 C 60 27.08414077758789 59.2335205078125 23.28647994995117 57.72185897827148 19.71250152587891 C 56.2613410949707 16.25944137573242 54.17005157470703 13.15785980224609 51.50609970092773 10.49390029907227 C 48.84214019775391 7.829948425292969 45.74056243896484 5.738658905029297 42.28749847412109 4.278141021728516 C 38.71352005004883 2.7664794921875 34.91585922241211 2 31 2 M 31 0 C 48.12083053588867 0 62 13.87916946411133 62 31 C 62 41.27249145507813 57.00350189208984 50.37799835205078 49.05937957763672 56.19929885864258 C 44.17800140380859 59.77933120727539 37.84832763671875 62 31 62 C 13.87916946411133 62 0 48.12083053588867 0 31 C 0 13.87916946411133 13.87916946411133 0 31 0 Z" stroke="none" fill="#fff"/>
      </g>
      <g id="Icon_feather-arrow-left" data-name="Icon feather-arrow-left" transform="translate(21 20)">
        <path id="Path_22" data-name="Path 22" d="M7.5,18h21" transform="translate(-7.5 -7.5)" fill="none" stroke="#fff" stroke-linecap="round" stroke-linejoin="round" stroke-width="3"/>
        <path id="Path_23" data-name="Path 23" d="M7.5,28.5,18,18,7.5,7.5" transform="translate(3 -7.5)" fill="none" stroke="#fff" stroke-linecap="round" stroke-linejoin="round" stroke-width="3"/>
      </g>
    </g>
  </g>
</svg>
