<svg id="bf7f87f4-d8e6-47bc-8f9b-a8ef1842d2e9" data-name="Layer 1" xmlns="http://www.w3.org/2000/svg" viewBox="0 0 52 52"><defs><style>.b33bc163-6cb3-401c-a3ec-cf16f67b9c4d{fill:#121212;}</style></defs><title>format</title><path class="b33bc163-6cb3-401c-a3ec-cf16f67b9c4d" d="M24.58,36.37c0,1.25,0,2.51,0,3.77s-.06,2.51-.11,3.77c-.05-1.26-.09-2.52-.11-3.77s0-2.52,0-3.77,0-2.51,0-3.77.06-2.51.11-3.77c0,1.26.09,2.51.11,3.77s0,2.51,0,3.77M23.23,2.07a8.41,8.41,0,0,0,2.59.35h0a.61.61,0,0,1,.64.42c.36-.32.82-.54,1.13-.09.2-.32.49-.45.67-.21.15-.22.43-.4.63-.07,0,0-.06-.07-.1-.07s-.28.2-.23.56l0,0a.82.82,0,0,0-.3-.08c0-.13-.05-.24-.13-.25s-.32.16-.32.53c0,0-.05,0-.08,0s-.05,0-.11,0A.87.87,0,0,0,27.28,3l0-.09c0-.05-.08-.25-.24-.22s-.26.27-.25.5c-.08.07-.11.09-.17.09a.38.38,0,0,1-.23-.08A.71.71,0,0,0,26,3.06h0l-.09,0s0,0,0-.05a.16.16,0,0,1,0-.13A.4.4,0,0,1,26,2.79a.75.75,0,0,0-.21,0,.37.37,0,0,0-.18.17.72.72,0,0,0-.09.27.32.32,0,0,1-.14,0c-.06,0-.09,0-.17-.09A.65.65,0,0,0,24.87,3h-.06V3a.17.17,0,0,1,.06-.12L25,2.75a.59.59,0,0,0-.19,0,.37.37,0,0,0-.21.1.39.39,0,0,0-.13.2.14.14,0,0,0,0,.07h0c-.06,0-.09.06-.11,0s-.09,0-.16-.11a.59.59,0,0,0-.26-.19.52.52,0,0,0-.17,0h0a.22.22,0,0,1,.06-.14A.33.33,0,0,1,24,2.63a.34.34,0,0,0-.23,0,.42.42,0,0,0-.22.13,1.77,1.77,0,0,0-.14.17h0a.67.67,0,0,0-.33-.28Zm5.32-.37c0,.2-1.14.37-2.55.37s-2.55-.17-2.55-.37,1.14-.38,2.55-.38,2.55.17,2.55.38M25.42,20.43a.83.83,0,1,1-.76.82.79.79,0,0,1,.76-.82m-2-16.79,0-.1a1,1,0,0,0,.28-.07.84.84,0,0,0,.49.27h.13v0c.06.2.07,1.41-.66,1.22-.45-.12-.53-.58-.43-1l.15-.35m5.47,1.24a.89.89,0,0,1-.38.2,3.12,3.12,0,0,0,0-.83,2.93,2.93,0,0,0-.24-.77.76.76,0,0,0,.25.06l0,.1a6,6,0,0,1,.37,1,.37.37,0,0,1-.08.26M20,25.75a3.82,3.82,0,0,1,0-3.26c.52-1.09,1.85-2.54,1.88-3.55a77.1,77.1,0,0,1,.87-7.69s-.4,5.87-.52,7.93c-.06,1-1.43,2.42-1.78,3A3.72,3.72,0,0,0,20,25.75m3.38-5.42c.63.21.84,1.17.46,2.16s-1.2,1.61-1.83,1.4-.85-1.18-.47-2.17A2.14,2.14,0,0,1,23,20.29c.06-.79.31-4.06.47-6.45.19-2.74.55-7.36,1.26-7.58,0,0,.44-.57.25,3.58a72.59,72.59,0,0,1-1.68,10.47l.08,0M27.47,5.21c-.84-.14-.63-1.45-.4-1.76.05,0,.08-.07.12-.07s.06,0,.14.06a.61.61,0,0,0,.41.11l.09,0c.12.28.52,1.84-.36,1.68M25.85,49.85c-4.13-.07-5.69-1.23-6.25-1.92a.26.26,0,0,1,0-.1V45.35a.27.27,0,0,1,0-.12l0,0a3,3,0,0,0,.67.67c-.63,0-.45,1.56-.45,1.56a1.22,1.22,0,0,0,.83,1c.84.38.85-.63.85-.63V46.63a4.45,4.45,0,0,0,1.81.58v1c0,.46-.08.86.52,1A12.11,12.11,0,0,0,31,48.47c.86-.43.75-1,.75-1V45.67a.37.37,0,0,0-.07-.23l-.06-.08a4.17,4.17,0,0,1-.38.28c.19.32.15.69.06,2.35,0-2.28-.47-2.1-.61-2h0a10.21,10.21,0,0,1-3.85,1c-3.19.28-5.1-.57-6-1.25.65.26.65-1,.65-1V28.33c0-1-.65-1.38-1-1.1a1.14,1.14,0,0,0-.28.83c0,.38-.18,4.84-.32,8.25v-10a14,14,0,0,0,5.51,1.25,7.45,7.45,0,0,1-1.86.31s-.25,15.2-.06,18a.91.91,0,0,0,.76.83,10,10,0,0,0,2.68.08c4.49-.49,4.72-2.4,4.73-3V26.28a4.83,4.83,0,0,1-.56.27l-.18,17-.32-16.84a18.67,18.67,0,0,1-4,.72s4.69-1,4.93-1.72a4.77,4.77,0,0,0-.24-2.87c-.36-.95-1.61-2.25-1.69-2.95a4.23,4.23,0,0,0,1.16,1.32,5.41,5.41,0,0,1-.88-1.84c-.08-.54-.42-4.27-.56-5.53s-.93-4.74-1.32-7.75A4.53,4.53,0,0,1,26.14,6a12.29,12.29,0,0,0,2.13-.22.57.57,0,0,0,0,.13c.18,1,1.11,6,1.33,7.49.09.6.18,1.49.28,2.43a26.29,26.29,0,0,0,.59,4.1,7,7,0,0,0,.76,1.26,6.39,6.39,0,0,1,1.05,1.89,3.94,3.94,0,0,1-.07,2.43l-.08.11V44.22a2.11,2.11,0,0,0,.26,1,.27.27,0,0,1,0,.12v2.37c-.47.7-2,2.2-6.58,2.13m5-.34a7.65,7.65,0,0,1-2.4.86,11.78,11.78,0,0,1-2.58.21,13.76,13.76,0,0,1-2.56-.3A7.32,7.32,0,0,1,21,49.39a6.73,6.73,0,0,0,1.19.43c.41.1.82.19,1.24.26a17.77,17.77,0,0,0,2.53.25h.63l.64,0h.16l.16,0,.31,0,.63-.08a10.39,10.39,0,0,0,2.44-.67M33,45a1.64,1.64,0,0,1-.19-.75V25.78A4.54,4.54,0,0,0,32.9,23a6.54,6.54,0,0,0-1.14-2.1,7.51,7.51,0,0,1-.7-1.14,33.56,33.56,0,0,1-.55-4c-.1-.94-.2-1.83-.29-2.45C30,11.77,29.07,6.79,28.89,5.8A.15.15,0,0,1,29,5.64c1-.44.63-1.19.19-2.22a1,1,0,0,1-.07-.15l0-.06a.42.42,0,0,0,.36-.08.37.37,0,0,0,.13-.4l-.35-1.1C29.14,1,27.44.83,26,.83s-3.14.14-3.28.8l-.35,1.1a.36.36,0,0,0,.14.4.46.46,0,0,0,.35.08l0,.06a1,1,0,0,1-.07.15c-.44,1-.77,1.78.19,2.22a.15.15,0,0,1,.09.16c-.18,1-1.11,6-1.33,7.51-.09.62-.19,1.51-.29,2.45a33.56,33.56,0,0,1-.55,4,7.51,7.51,0,0,1-.7,1.14A6.54,6.54,0,0,0,19.1,23a4.54,4.54,0,0,0,.14,2.81V44.22a1.64,1.64,0,0,1-.19.75.75.75,0,0,0-.1.38v2.49c0,.5,1.3,3.26,7.05,3.33s7-2.83,7-3.33V45.35A.86.86,0,0,0,33,45Z"/></svg>