<svg id="cn" xmlns="http://www.w3.org/2000/svg" width="26.779" height="20.084" viewBox="0 0 26.779 20.084">
  <path id="Path_167" data-name="Path 167" d="M0,0H26.779V20.084H0Z" fill="#de2910"/>
  <path id="Path_168" data-name="Path 168" d="M-70.794-66.577-68.987-72l1.808,5.423L-72-69.891h6.025Z" transform="translate(74.008 74.008)" fill="#ffde00"/>
  <path id="Path_169" data-name="Path 169" d="M.4,1.808,1,0l.6,1.808L0,.7H2.008Z" transform="matrix(-0.514, -0.858, 0.858, -0.514, 9.709, 3.386)" fill="#ffde00"/>
  <path id="Path_170" data-name="Path 170" d="M.4,1.808,1,0l.6,1.808L0,.7H2.008Z" transform="matrix(-0.141, -0.99, 0.99, -0.141, 11.198, 5.144)" fill="#ffde00"/>
  <path id="Path_171" data-name="Path 171" d="M.4,1.808,1,0l.6,1.808L0,.7H2.008Z" transform="matrix(0.275, -0.961, 0.961, 0.275, 10.809, 7.719)" fill="#ffde00"/>
  <path id="Path_172" data-name="Path 172" d="M.4,1.808,1,0l.6,1.808L0,.7H2.008Z" transform="matrix(0.625, -0.781, 0.781, 0.625, 8.631, 9.194)" fill="#ffde00"/>
</svg>
