<svg id="gb" xmlns="http://www.w3.org/2000/svg" width="26.779" height="20.084" viewBox="0 0 26.779 20.084">
  <path id="Path_721" data-name="Path 721" d="M0,0H26.779V20.084H0Z" fill="#012169"/>
  <path id="Path_722" data-name="Path 722" d="M3.138,0l10.21,7.573L23.515,0h3.264V2.594l-10.042,7.49,10.042,7.448v2.552H23.432L13.39,12.595l-10,7.49H0V17.574l10-7.448L0,2.678V0Z" fill="#fff"/>
  <path id="Path_723" data-name="Path 723" d="M17.741,11.758l9.038,6.653v1.674L15.44,11.758Zm-7.7.837.251,1.464L2.259,20.084H0ZM26.779,0V.126L16.36,7.992l.084-1.841L24.687,0ZM0,0,10,7.364H7.49L0,1.757Z" fill="#c8102e"/>
  <path id="Path_724" data-name="Path 724" d="M10.084,0V20.084h6.695V0ZM0,6.695V13.39H26.779V6.695Z" fill="#fff"/>
  <path id="Path_725" data-name="Path 725" d="M0,8.076v4.017H26.779V8.076ZM11.423,0V20.084H15.44V0Z" fill="#c8102e"/>
</svg>
