<svg id="f52f093b-59d3-4b38-9233-069dee0cb09e" data-name="Layer 1" xmlns="http://www.w3.org/2000/svg" viewBox="0 0 52 52"><defs><style>.a8c02f24-eaa0-44cb-81ae-bc3331d2ac95{fill:#121212;}</style></defs><title>alcool</title><path class="a8c02f24-eaa0-44cb-81ae-bc3331d2ac95" d="M30,47.62a4.56,4.56,0,0,0,1.13.38l.59.11.3,0,.29,0,.36,0-.17.1a.58.58,0,0,0,.32,0A.33.33,0,0,0,33,48.3l.06,0a.19.19,0,0,0,0-.15.2.2,0,0,0-.07-.12L33,48a1.1,1.1,0,0,0-.33-.06l-.29,0h-.29l-.29,0-.58-.07a7.06,7.06,0,0,1-1.12-.28,2.45,2.45,0,0,1-.51-.26,1,1,0,0,1-.39-.42.92.92,0,0,0,.33.49A2.78,2.78,0,0,0,30,47.62Zm2.85.46Z"/><path class="a8c02f24-eaa0-44cb-81ae-bc3331d2ac95" d="M26.38,33.54c-.05.72-.09,1.44-.13,2.16l-.09,2.15c0,.72-.05,1.44-.07,2.16s0,1.44,0,2.16v1.08a3.05,3.05,0,0,0,.21,1.08,2.87,2.87,0,0,0,.6.92,5.11,5.11,0,0,0,.83.71,6.06,6.06,0,0,1-.75-.77,2.78,2.78,0,0,1-.51-.92,2.93,2.93,0,0,1-.14-1c0-.36,0-.72.05-1.08.07-1.43.15-2.87.21-4.3,0-.72.07-1.44.09-2.15l.09-2.16c0-.72.05-1.43.11-2.14S27,30,27.1,29.28a13.8,13.8,0,0,0-.51,2.11A19.55,19.55,0,0,0,26.38,33.54Z"/><path class="a8c02f24-eaa0-44cb-81ae-bc3331d2ac95" d="M23.43,48.26l-2.3,0-1.15,0-.57,0a2.3,2.3,0,0,1-.28-.06s-.09,0-.08-.08a.22.22,0,0,1,.1-.09A.18.18,0,0,0,19,48a.08.08,0,0,0,0,.08l.06.05a1.36,1.36,0,0,0,.28.11,5.72,5.72,0,0,0,.57.11c.39,0,.77.08,1.15.11.77.06,1.54.09,2.31.12s1.54,0,2.31,0A22.35,22.35,0,0,0,28,48.46l-2.31-.12Z"/><circle class="a8c02f24-eaa0-44cb-81ae-bc3331d2ac95" cx="28.94" cy="10.67" r="0.17"/><path class="a8c02f24-eaa0-44cb-81ae-bc3331d2ac95" d="M27.88,10.57a.2.2,0,1,0-.39,0,.2.2,0,1,0,.39,0Z"/><path class="a8c02f24-eaa0-44cb-81ae-bc3331d2ac95" d="M27.87,10.88a.2.2,0,0,0,0,.28.19.19,0,0,0,.28,0,.2.2,0,1,0-.31-.24Z"/><path class="a8c02f24-eaa0-44cb-81ae-bc3331d2ac95" d="M26.17,9.3a.29.29,0,1,0,0,.57.27.27,0,0,0,.29-.27A.28.28,0,0,0,26.17,9.3Z"/><path class="a8c02f24-eaa0-44cb-81ae-bc3331d2ac95" d="M31.82,7.65a.18.18,0,0,0-.18.18.18.18,0,0,0,.18.17A.18.18,0,0,0,32,7.83.18.18,0,0,0,31.82,7.65Z"/><path class="a8c02f24-eaa0-44cb-81ae-bc3331d2ac95" d="M30,9a.29.29,0,1,0-.28.28A.29.29,0,0,0,30,9Z"/><path class="a8c02f24-eaa0-44cb-81ae-bc3331d2ac95" d="M30.12,10.29a.29.29,0,1,0,0,.57.28.28,0,0,0,.29-.27A.28.28,0,0,0,30.12,10.29Z"/><path class="a8c02f24-eaa0-44cb-81ae-bc3331d2ac95" d="M25.47,9a.18.18,0,0,0-.18.18.18.18,0,0,0,.18.17.18.18,0,0,0,.17-.17A.18.18,0,0,0,25.47,9Z"/><circle class="a8c02f24-eaa0-44cb-81ae-bc3331d2ac95" cx="23.53" cy="6.26" r="0.17"/><path class="a8c02f24-eaa0-44cb-81ae-bc3331d2ac95" d="M27.24,5.74a.18.18,0,0,0,.17-.18.18.18,0,0,0-.17-.17.18.18,0,0,0-.18.17A.18.18,0,0,0,27.24,5.74Z"/><circle class="a8c02f24-eaa0-44cb-81ae-bc3331d2ac95" cx="26.36" cy="5.07" r="0.17"/><path class="a8c02f24-eaa0-44cb-81ae-bc3331d2ac95" d="M22,7.29a.18.18,0,0,0,.18-.17A.18.18,0,0,0,22,6.94a.18.18,0,0,0-.17.18A.18.18,0,0,0,22,7.29Z"/><path class="a8c02f24-eaa0-44cb-81ae-bc3331d2ac95" d="M19.81,4.88A.51.51,0,0,1,20,4.82h.24l.23,0h0a.2.2,0,0,0,.2-.19v0a.64.64,0,0,1,.2-.49,2.35,2.35,0,0,1,.58-.39.9.9,0,0,0-.4,0,1,1,0,0,0-.39.14.83.83,0,0,0-.31.33.77.77,0,0,0-.07.26h-.09a.85.85,0,0,0-.31.09.65.65,0,0,0-.25.22.41.41,0,0,0-.05.3A.47.47,0,0,1,19.81,4.88Z"/><path class="a8c02f24-eaa0-44cb-81ae-bc3331d2ac95" d="M23,5.91a.18.18,0,0,0,.18-.17A.18.18,0,0,0,23,5.56a.18.18,0,0,0-.17.18A.18.18,0,0,0,23,5.91Z"/><path class="a8c02f24-eaa0-44cb-81ae-bc3331d2ac95" d="M36.77,16.28a11.16,11.16,0,0,0-.35-1.72,9.75,9.75,0,0,0-.65-1.65,14.9,14.9,0,0,1-1.5-6.47v0a.22.22,0,0,0-.22-.22C34,6,33.54,4.48,32.76,4.32a1.19,1.19,0,0,0-1,.28A1.32,1.32,0,0,0,31,4c-.46-.2-.87.16-1.11.52l-.09,0a.85.85,0,0,0-.61,0l-.14-.23A.46.46,0,0,0,28.77,4a.66.66,0,0,0-.41.1A1.32,1.32,0,0,0,27.41,3a1.83,1.83,0,0,0-1.93.62c-.81-.47-4.83-2.55-7,.61-.89,1.28-.8,1.85-.67,2.08a.17.17,0,0,0-.05.12v0a14.9,14.9,0,0,1-1.5,6.47,9.75,9.75,0,0,0-.65,1.65,11.16,11.16,0,0,0-.35,1.72,9.87,9.87,0,0,0,.19,3.51A8.11,8.11,0,0,0,17,23a8.62,8.62,0,0,0,1.25,1.24c.45.36.91.71,1.39,1a11.1,11.1,0,0,0,3.14,1.46l.42.1.26.18a4.52,4.52,0,0,1,.77,1.8,19.28,19.28,0,0,1,.28,2.06l0,.18c0,.28.05.57.06.85l.21,7.39.07,3.16a7.94,7.94,0,0,1,0,1c-.09,1.13-1.05,1.86-2,2.57-.15.11-.3.22-.43.33a5.85,5.85,0,0,1-.84.49,3,3,0,0,1-.43.14L20.6,47c-.34,0-.69.09-1,.12l-.8.09-.18,0-.12,0a.87.87,0,0,0-.18.11.79.79,0,0,0-.23.5,1.48,1.48,0,0,0,0,.36,1.14,1.14,0,0,0,.07.33.34.34,0,0,0,.1.17l.08.07.08,0,.11,0,.17,0h.06l0,.08,0-.07a7.9,7.9,0,0,0,.92.14h.06c.77.09,1.54.15,2.12.19,1.57.1,3,.16,4.25.16s2.71-.07,4.25-.18c.85-.06,1.51-.12,2.12-.19l.54-.07h.07a4.45,4.45,0,0,0,.52-.11l.1,0,.1,0,.08-.07a.44.44,0,0,0,.08-.15h0c0-.06,0-.12.05-.18a2.09,2.09,0,0,0,0-.35,1.1,1.1,0,0,0-.06-.41.66.66,0,0,0-.19-.27.42.42,0,0,0-.18-.11l-.14,0a3.26,3.26,0,0,0-.41,0l-.67-.07-1-.13-.48-.1a4,4,0,0,1-.43-.16,6.9,6.9,0,0,1-.87-.48A12.91,12.91,0,0,1,28.05,45a3,3,0,0,1-.57-.73,3.18,3.18,0,0,1-.27-.89,7.68,7.68,0,0,1-.05-1l.28-10.54c0-.28,0-.56.06-.84l0-.22a19.62,19.62,0,0,1,.28-2,4.68,4.68,0,0,1,.78-1.8l.16-.16c.17,0,.35-.07.52-.12a11.1,11.1,0,0,0,3.14-1.46c.48-.32.94-.67,1.39-1A8.62,8.62,0,0,0,35,23a8.11,8.11,0,0,0,1.54-3.16A9.87,9.87,0,0,0,36.77,16.28Zm-18-11.85A3.69,3.69,0,0,1,22.9,3a8.61,8.61,0,0,1,2.53,1,.16.16,0,0,0,.13,0A.2.2,0,0,0,25.68,4a1.48,1.48,0,0,1,1.63-.61A1.05,1.05,0,0,1,28,4.43a.16.16,0,0,0,.1.17.17.17,0,0,0,.2,0,.84.84,0,0,1,.4-.2.09.09,0,0,1,.06,0l.23.36a.2.2,0,0,0,.24.06.69.69,0,0,1,.45-.08.11.11,0,0,1,.07.08.16.16,0,0,0,.16.13.17.17,0,0,0,.17-.09s.41-.76.8-.6a1,1,0,0,1,.56.7.18.18,0,0,0,.15.14A.17.17,0,0,0,31.79,5a.89.89,0,0,1,.9-.36c.39.08.77.86,1,1.45L33,6.21l-1,0-2,0-1.84.06a.42.42,0,0,0,.08-.26A.15.15,0,0,0,28,5.93a.16.16,0,0,0-.16.15c0,.18-.26.19-.28.19a.17.17,0,0,0-.16.11S27,7.74,25.83,7.84A2.07,2.07,0,0,1,24,7,.17.17,0,0,0,23.82,7a.17.17,0,0,0-.09.18.81.81,0,0,1-.68,1,1,1,0,0,1-.8-.18A.47.47,0,0,1,22,7.64a.16.16,0,0,0-.13-.14c-.22,0-.84-.22-.95-.54-.15-.48-.26-.91-.26-.91a.16.16,0,1,0-.31.07l0,.12H20l-1.68,0-.23-.07C18.06,6,17.93,5.61,18.75,4.43ZM28.28,27a5.42,5.42,0,0,0-.73,1.69,9.09,9.09,0,0,0-.2,1c-.06.35-.1.7-.14,1.05s-.08.69-.11,1.05l-.05,1.06L26.94,35c-.08,1.41-.13,2.82-.19,4.22l-.09,2.12,0,1a9.75,9.75,0,0,0,0,1.08A3.45,3.45,0,0,0,27,44.54a2.51,2.51,0,0,0,.3.47,3.7,3.7,0,0,0,.37.42,12,12,0,0,0,1.67,1.34,7.31,7.31,0,0,0,.95.54,4,4,0,0,0,.52.19l.54.12c.35.06.7.1,1.06.14l.52.05.51.07h0v0a.82.82,0,0,1,0,.18.83.83,0,0,1,0,.22s0,0,0,0a3.12,3.12,0,0,1-.48.1l-.51.07c-.69.08-1.4.13-2.09.17-1.4.09-2.81.15-4.21.15s-2.8,0-4.2-.13c-.7,0-1.4-.1-2.1-.17-.34,0-.7-.08-1-.15l-.1,0,0-.15a.74.74,0,0,1,0-.21.31.31,0,0,1,0-.1h0l.12,0,.26,0,.52-.06,1.06-.13a5,5,0,0,0,.53-.11,3.38,3.38,0,0,0,.54-.17,5.83,5.83,0,0,0,.94-.56c.3-.21.58-.43.85-.66s.54-.46.8-.71a3.62,3.62,0,0,0,.36-.42,2.88,2.88,0,0,0,.3-.47,3.45,3.45,0,0,0,.31-1.07,9.75,9.75,0,0,0,0-1.08l0-1-.08-2.12c-.06-1.4-.12-2.81-.2-4.22L25,32.9l-.06-1.06c0-.36-.07-.7-.11-1.05s-.08-.7-.13-1.05-.11-.7-.2-1a5.48,5.48,0,0,0-.69-1.61.8.8,0,0,0-.15-.21c.28,0,.55.08.83.1A11.6,11.6,0,0,0,26,27a11.6,11.6,0,0,0,1.56,0c.27,0,.55-.06.82-.1A1.47,1.47,0,0,0,28.28,27ZM36,19.65a7.63,7.63,0,0,1-2.52,4.17,16.27,16.27,0,0,1-1.31,1.05,11.28,11.28,0,0,1-3,1.57,9.45,9.45,0,0,1-1.65.4c-.51.07-1,.1-1.54.12s-1-.05-1.54-.12a9.45,9.45,0,0,1-1.65-.4,11.28,11.28,0,0,1-3-1.57,16.27,16.27,0,0,1-1.31-1.05A7.63,7.63,0,0,1,16,19.65a9.33,9.33,0,0,1-.15-3.29,9.72,9.72,0,0,1,.92-3.17,13.47,13.47,0,0,0,.67-1.62,14,14,0,0,0,.44-1.69,15.76,15.76,0,0,0,.3-3.22l1.82,0h.52c0,.12.07.25.12.4L18.5,7h0a.15.15,0,0,0-.15.14h0a18.16,18.16,0,0,1-.27,2.94,14.42,14.42,0,0,1-.8,2.82l-.14.34c-.05.12-.1.24-.14.36s-.17.48-.25.72a12.63,12.63,0,0,0-.33,1.48,11.38,11.38,0,0,0-.05,3,8.64,8.64,0,0,0,.88,2.9A7.22,7.22,0,0,0,18.1,23a3.47,3.47,0,0,0,.25.29l.26.27c.18.18.37.35.56.51a10.53,10.53,0,0,0,2.53,1.61,9,9,0,0,0,1.51.52,6.37,6.37,0,0,0,.77.21,9.21,9.21,0,0,0,2,.15,9.21,9.21,0,0,0,2-.15l.09,0,.28,0a7.23,7.23,0,0,0,3.09-1.19,10.89,10.89,0,0,0,1.32-1l.31-.28.3-.29c.1-.09.19-.2.29-.3s.19-.21.28-.32a7.66,7.66,0,0,0,1.47-3,10.3,10.3,0,0,0,.25-3.32,10.85,10.85,0,0,0-.79-3.22l-.32-.75-.15-.38c0-.12-.09-.25-.13-.38a13.83,13.83,0,0,1-.43-1.56,18.42,18.42,0,0,1-.41-3.23,15.79,15.79,0,0,0,.19,3.27A14.91,14.91,0,0,0,34,12l.12.4.14.39.3.76a10.82,10.82,0,0,1,.68,3.13,11.18,11.18,0,0,1,0,1.16,9.92,9.92,0,0,0-.94-4.17A12.23,12.23,0,0,1,33.42,11l-.81.09c.06.32.12.63.19.94.11.51.24,1,.35,1.53a6.25,6.25,0,0,1-.7-1.42,9.49,9.49,0,0,1-.3-1c-.75.07-1.73.14-2.89.18a.17.17,0,0,0-.15-.11.17.17,0,0,0-.15.13h-.25a.25.25,0,0,0,0-.11.23.23,0,1,0-.46,0,.21.21,0,0,0,.05.12l-1.78,0a.28.28,0,0,0-.26-.29.3.3,0,0,0-.3.27v0A61.32,61.32,0,0,1,18.58,11a11.89,11.89,0,0,1-.91,2.67A9.86,9.86,0,0,0,16.81,19a2.33,2.33,0,0,1,0-.28,11,11,0,0,1,.07-2.92,11.76,11.76,0,0,1,.31-1.43c.07-.23.15-.46.23-.69s.19-.45.28-.69a14.09,14.09,0,0,0,.79-2.91,17.12,17.12,0,0,0,.2-2.86l2.13,0a1.72,1.72,0,0,0,1,.57.9.9,0,0,0,.32.42,1.25,1.25,0,0,0,.8.27l.25,0A1.08,1.08,0,0,0,24,7.53a2.19,2.19,0,0,0,3.66-1,.68.68,0,0,0,.2-.07l2,.06,2,0,1.82,0a15.76,15.76,0,0,0,.3,3.22,14,14,0,0,0,.44,1.69,13.47,13.47,0,0,0,.67,1.62,9.72,9.72,0,0,1,.92,3.17A9.33,9.33,0,0,1,36,19.65ZM24.74,14.27a.18.18,0,0,1-.18-.17.18.18,0,0,1,.18-.18.17.17,0,0,1,.17.18A.17.17,0,0,1,24.74,14.27Zm.35,7.13a.18.18,0,0,1-.18.17.18.18,0,0,1-.17-.17.18.18,0,0,1,.17-.18A.18.18,0,0,1,25.09,21.4Zm.42,1a.27.27,0,0,1-.27-.29.3.3,0,0,1,.3-.28.29.29,0,0,1,.27.3A.28.28,0,0,1,25.51,22.43Zm.33,3a.18.18,0,0,1,.18.17.18.18,0,0,1-.18.18.18.18,0,0,1-.17-.18A.18.18,0,0,1,25.84,25.44Zm-.55-11.7a.17.17,0,0,1-.17-.18.17.17,0,0,1,.17-.17.18.18,0,0,1,.18.17A.18.18,0,0,1,25.29,13.74Zm1.27,3.64a.29.29,0,0,1-.28-.29.3.3,0,0,1,.3-.28.28.28,0,0,1,.27.3A.27.27,0,0,1,26.56,17.38Zm.33,7.12a.18.18,0,0,1-.18.18.18.18,0,0,1-.17-.18.17.17,0,0,1,.17-.17A.17.17,0,0,1,26.89,24.5ZM28.21,20a.3.3,0,0,1,.28.3.28.28,0,0,1-.3.27.27.27,0,0,1-.27-.29A.29.29,0,0,1,28.21,20Zm-.44-2.12a.18.18,0,0,1,.17-.17.18.18,0,0,1,.18.17.18.18,0,0,1-.18.18A.18.18,0,0,1,27.77,17.86ZM28,13.44a.18.18,0,0,1-.18-.17.18.18,0,0,1,.18-.18.18.18,0,0,1,.17.18A.18.18,0,0,1,28,13.44Zm-.36-.65a.27.27,0,0,1-.27-.29.3.3,0,0,1,.3-.28.29.29,0,0,1,.27.3A.28.28,0,0,1,27.67,12.79Zm-.26,5.74a.18.18,0,0,1,.18.17.18.18,0,0,1-.18.18.17.17,0,0,1-.17-.18A.17.17,0,0,1,27.41,18.53Zm-.06,5.39a.17.17,0,0,1-.17.18.18.18,0,0,1-.18-.18.18.18,0,0,1,.18-.17A.17.17,0,0,1,27.35,23.92Zm2.79-9.47a.18.18,0,0,1,.17-.18.18.18,0,0,1,.18.18.18.18,0,0,1-.18.17A.18.18,0,0,1,30.14,14.45Z"/></svg>