<svg id="fa470f7f-8e72-45dd-8479-bf037d2b458f" data-name="Layer 1" xmlns="http://www.w3.org/2000/svg" viewBox="0 0 52 52"><defs><style>.fe1c1ab4-bd4f-46f8-be8a-692896d01ff5{fill:#121212;}</style></defs><title>service</title><rect class="fe1c1ab4-bd4f-46f8-be8a-692896d01ff5" x="31.08" y="7.75" width="5.01" height="1.33"/><rect class="fe1c1ab4-bd4f-46f8-be8a-692896d01ff5" x="31.08" y="11.51" width="2.7" height="1.33"/><rect class="fe1c1ab4-bd4f-46f8-be8a-692896d01ff5" x="31.08" y="15.26" width="5.01" height="1.33"/><rect class="fe1c1ab4-bd4f-46f8-be8a-692896d01ff5" x="31.08" y="19.02" width="2.7" height="1.33"/><rect class="fe1c1ab4-bd4f-46f8-be8a-692896d01ff5" x="31.08" y="22.78" width="5.01" height="1.33"/><rect class="fe1c1ab4-bd4f-46f8-be8a-692896d01ff5" x="31.08" y="26.54" width="2.7" height="1.33"/><rect class="fe1c1ab4-bd4f-46f8-be8a-692896d01ff5" x="31.08" y="30.3" width="5.01" height="1.33"/><path class="fe1c1ab4-bd4f-46f8-be8a-692896d01ff5" d="M27.11,35.1l-1-.42v-8.9a1.44,1.44,0,0,0-1.25-1.55h0a1.43,1.43,0,0,0-1.25,1.54v8.9l-1,.43a4.94,4.94,0,0,0-2.86,6.51,4.76,4.76,0,0,0,2.94,2.77,6.7,6.7,0,0,0,2.18.37h0a5.29,5.29,0,0,0,5.5-5A5,5,0,0,0,27.11,35.1Z"/><path class="fe1c1ab4-bd4f-46f8-be8a-692896d01ff5" d="M33.79,39.7a8.12,8.12,0,0,0-4.25-7V8.8a4.7,4.7,0,0,0-4.69-4.72h0a4.71,4.71,0,0,0-4.71,4.71V32.71a8,8,0,0,0-3.67,10,8.15,8.15,0,0,0,5,4.65,10.27,10.27,0,0,0,3.4.59h0C29.78,47.91,33.79,44.23,33.79,39.7Zm-3.11,3.9c-.12.15-.23.28-.36.42l-.18.19c-.12.11-.24.23-.37.33l-.21.18-.42.31-.2.13a6.15,6.15,0,0,1-.67.38.2.2,0,0,1-.08,0c-.21.1-.41.19-.63.27l-.25.08a4.44,4.44,0,0,1-.52.15l-.28.07-.54.1-.27,0c-.22,0-.45,0-.68,0h-.17a7.34,7.34,0,0,1-.81-.05l-.22,0-.65-.1-.25-.06c-.29-.07-.58-.15-.87-.25a6.45,6.45,0,0,1-.18-12.19V8.79a3.31,3.31,0,0,1,.23-1.22,3,3,0,0,1,2.75-1.91h0a3,3,0,0,1,2.74,1.91,3.32,3.32,0,0,1,.23,1.23V33.66A6.38,6.38,0,0,1,32,40.47c0,.08,0,.15,0,.23s-.06.34-.1.51-.05.17-.08.26a4.34,4.34,0,0,1-.16.47l-.09.24c-.08.17-.17.34-.26.5s-.05.11-.08.15a6.57,6.57,0,0,1-.4.62Z"/></svg>