<svg id="f639b4cb-9442-42e0-8dbc-a6d2c9a9f2c7" data-name="Layer 1" xmlns="http://www.w3.org/2000/svg" viewBox="0 0 52 52"><defs><style>.a0d14b09-9cc9-4d92-9dac-b6a6eed7b256{fill:#121212;}</style></defs><title>duree</title><path class="a0d14b09-9cc9-4d92-9dac-b6a6eed7b256" d="M20.51,4.41c-.15.38-.74.4-1.16.54s-.91.45-1.21.22c0,0,0-.12,0-.18.07-.24,1.34-.63,1.83-.76.22-.06.49,0,.54.18"/><path class="a0d14b09-9cc9-4d92-9dac-b6a6eed7b256" d="M18.32,6.83c-.31-.33.13-.69.4-.9a5.91,5.91,0,0,1,3.05-1.07c.27,0,.56-.09.58.18s-.88.31-1.12.36a4.8,4.8,0,0,0-2.06.85c-.31.21-.43.45-.85.58"/><path class="a0d14b09-9cc9-4d92-9dac-b6a6eed7b256" d="M32.93,8.31c-.45-.08-.24-.61-.27-.9-.08-.6-.48-.85-.85-1.21,0-.15.1-.19.18-.27a1.61,1.61,0,0,1,1.12,1.22,1.47,1.47,0,0,1-.18,1.16"/><path class="a0d14b09-9cc9-4d92-9dac-b6a6eed7b256" d="M34.14,8c-.58.05-.3-.65-.36-1.12s-.19-.45-.23-.67c.73-.64.82,1.19.59,1.79"/><path class="a0d14b09-9cc9-4d92-9dac-b6a6eed7b256" d="M41.26,20.56a4.81,4.81,0,0,0,1.35-.09,1.26,1.26,0,0,0-.41-.76c-.29.31-.73.46-.94.85m-2.46-1a4,4,0,0,0-.76.72,10.48,10.48,0,0,1,.85,1.21,8.43,8.43,0,0,0,1.16-1c-.48-.25-.74-.72-1.25-.94m2,.36c.48.32.77-.44,1.21-.58-.32-.94-.9.28-1.21.58m-.72-.58c.14.07.18.24.36.27.34-.35.55-.83,1-1.08-.16-.14-.27-.34-.45-.45a9.56,9.56,0,0,0-.9,1.26m.36-1.93a12.56,12.56,0,0,0-1.21,1.21,1.48,1.48,0,0,0,.49.36c.29-.49.68-.88,1-1.35-.08-.09-.12-.21-.27-.22m-1.61.81a6,6,0,0,0,1.3-1.26c-.76-.13-1.87.63-1.3,1.26M19.35,16.52a17.23,17.23,0,0,0-2.51,1.62,10.26,10.26,0,0,0-3.54,4.44A18.9,18.9,0,0,0,12,25.23c-.11.37-.07.76-.18,1.08s-.27.41-.35.63a14,14,0,0,0-.14,7.62c.17.56.47,1.15.72,1.75a10.56,10.56,0,0,0,2.11,3.19,17.56,17.56,0,0,0,2.82,2.83c.58.41,1.13.86,1.66,1.16a10.45,10.45,0,0,0,2.06.86,10.82,10.82,0,0,0,2.24.71,22.67,22.67,0,0,0,4.3-.09,12.42,12.42,0,0,0,3.81-.8,10.84,10.84,0,0,0,2.91-1.66,13.62,13.62,0,0,1,1.26-1,12.05,12.05,0,0,0,1.39-.94A12.62,12.62,0,0,0,37.72,39a12.25,12.25,0,0,0,1-1.66,23.33,23.33,0,0,0,1.44-4,14.47,14.47,0,0,0-.14-7.14,16.45,16.45,0,0,0-.54-2.15,8.78,8.78,0,0,0-1.12-1.84c-.39-.54-.79-1.23-1.25-1.75a26.42,26.42,0,0,0-3.72-2.92,11,11,0,0,0-6.5-2.11,21.55,21.55,0,0,0-7.57,1M23,13.74a9.51,9.51,0,0,0,.13,1,30.14,30.14,0,0,1,5.38-.09,3.27,3.27,0,0,0,0-.85c-1.87.06-3.78-.21-5.47,0m-2.47-6c-.19,1.26.14,2.8,0,4,0,.43-.35,1.23.31,1.21a24.55,24.55,0,0,0,0-5.21c0-.07-.19.05-.32,0M30,7.6v4.17c0,.4-.16,1.15.23,1.21.21,0,.12-.2.13-.27.34-1.39,0-3.66.32-5.11-.16,0-.62-.29-.68,0m-8.69,0a41.56,41.56,0,0,1,.09,5.25c.19-.08.54,0,.72-.09,0-1.76.06-3.65-.05-5.34H22a6.55,6.55,0,0,1-.67.18m7-.22a52.32,52.32,0,0,0,.22,5.47,6.58,6.58,0,0,1,1,.09c.08-1.75.08-3.81,0-5.56Zm-1.53,5.43a10.28,10.28,0,0,0,1.26,0c-.21-1.71-.12-3.72-.27-5.47a8.4,8.4,0,0,0-1.35,0c.26,1.63.12,3.89.36,5.39m-2.19-.09a7.59,7.59,0,0,0,1.7.09A49.77,49.77,0,0,1,26,7.42a15.74,15.74,0,0,0-1.84,0c.2,1.69.16,3.61.36,5.3M22.62,7.42c-.08,1.7-.07,3.72,0,5.43a13.06,13.06,0,0,1,1.43-.09c-.16-1.69-.21-3.74-.31-5.34Zm6.81,6.46a3.17,3.17,0,0,0,0,.89,21.2,21.2,0,0,1,8,4.72,5.42,5.42,0,0,0,.72-.63,1.39,1.39,0,0,1,.17-2.2A2.15,2.15,0,0,1,40.37,16a3.21,3.21,0,0,1,1.07,1,19.48,19.48,0,0,1,1.75,2.38c.52,1,.61,1.77-.63,2a7.22,7.22,0,0,1-1.16.13c-.25,0-.54-.29-.77-.27-.44,0-.79.75-1.16,1A9.78,9.78,0,0,1,41,26.35,14.63,14.63,0,0,1,41,34a17,17,0,0,1-2.2,5.21l-.76,1a9.8,9.8,0,0,1-.81,1,5.26,5.26,0,0,1-.62.35,42.6,42.6,0,0,1-3.77,2.83,12.39,12.39,0,0,1-4.39,1.39,32.68,32.68,0,0,1-5.6.18,10,10,0,0,1-2.38-.72,16.8,16.8,0,0,1-2.15-.89,19.54,19.54,0,0,1-1.79-1.26,17.78,17.78,0,0,1-3-2.92,11,11,0,0,1-2.33-3.41,19.39,19.39,0,0,1-.85-2.11,16.42,16.42,0,0,1-.4-5.52,10.09,10.09,0,0,1,.36-1.52c.13-.5.18-1,.35-1.48.07-.19.24-.31.32-.5s.08-.58.18-.85a19.31,19.31,0,0,1,1.3-2.56c1-1.88,1.94-3.62,3.72-4.75.44-.29.93-.59,1.39-.9a8.32,8.32,0,0,1,1.38-.9,29.08,29.08,0,0,1,3.19-.81A3.61,3.61,0,0,0,22,13.74c-.38-.13-.59.2-.85.23a5.37,5.37,0,0,1-1.26-.27c-.69-.45-.18-2-.27-3.1-.05-.64-.31-2.9.05-3.41s1.64-.52,2.24-.63a40.23,40.23,0,0,1,5.2,0c1.54,0,4-.26,4.39.63a4.64,4.64,0,0,1-.05,1.61c-.1,1.3,0,2.44-.13,3.86,0,.46-.11,1.16-.45,1.3s-.84-.19-1.48,0"/><path class="a0d14b09-9cc9-4d92-9dac-b6a6eed7b256" d="M18.63,10.33c.17.73-.05,1.74.14,2.52.07.32.36.51.22.8-.93.22-.87-2.26-.72-3.18a.24.24,0,0,1,.14-.14Z"/><path class="a0d14b09-9cc9-4d92-9dac-b6a6eed7b256" d="M33.06,10.74c0,.82-.47,2-.27,3,.06.3.45.51.18.81-1.2-.14-.57-2.88-.27-3.81a.25.25,0,0,1,.36,0"/><path class="a0d14b09-9cc9-4d92-9dac-b6a6eed7b256" d="M28.18,16.34c-.28.42-.86,0-1.17,0a12.54,12.54,0,0,0-4.48.36c-.61.17-1.14.57-1.66.45,0-.58.91-.72,1.53-.9a12.86,12.86,0,0,1,4.66-.4c.35.05.94.17,1.12.49"/><path class="a0d14b09-9cc9-4d92-9dac-b6a6eed7b256" d="M24.41,17.87A12.6,12.6,0,0,0,19,19.58a15.17,15.17,0,0,0-1.48,1.25,14.55,14.55,0,0,0-1.43,1.3,10,10,0,0,0-1,1.57A14.73,14.73,0,0,0,13.43,27a16.88,16.88,0,0,0-.27,2.34A10.45,10.45,0,0,0,14,34.74a17.45,17.45,0,0,0,.89,1.62c.31.55.48,1.2.81,1.75a10.9,10.9,0,0,0,1.39,1.7A10.24,10.24,0,0,0,21,42.33a11.22,11.22,0,0,0,7.17.31,16.27,16.27,0,0,0,2.1-.94,31.88,31.88,0,0,0,4.08-2.11A8.69,8.69,0,0,0,36,38.15,11,11,0,0,0,37,36c.32-.75.75-1.4,1-2.1a12.53,12.53,0,0,0,.54-4.67c-.36-4.94-2.57-8.07-6.23-9.78a23.78,23.78,0,0,0-2.42-.9,12.77,12.77,0,0,0-2.6-.76,11.83,11.83,0,0,0-1.52,0c-.44,0-.93,0-1.35,0M26,16.93a10.86,10.86,0,0,1,4.48.9,12.75,12.75,0,0,1,5,2.6,12.66,12.66,0,0,1,3.94,9.65,11.27,11.27,0,0,1-.8,4.75c-.29.61-.62,1.24-.9,1.89A7.09,7.09,0,0,1,36,39.41a10.4,10.4,0,0,1-.85.81c-1.32,1-3.34,1.67-5,2.56a9.88,9.88,0,0,1-4.89,1.12c-.55,0-1,.12-1.52.09a12.8,12.8,0,0,1-5.24-1.84,8.55,8.55,0,0,1-2-1.57,11.46,11.46,0,0,1-1.56-2c-.32-.54-.55-1.17-.86-1.75s-.65-1.15-.89-1.7a12.25,12.25,0,0,1-1-5.7,16.18,16.18,0,0,1,.27-2.34,10.09,10.09,0,0,1,1.12-2.64,13.25,13.25,0,0,1,3.05-4.13,14.58,14.58,0,0,1,2-1.62A14,14,0,0,1,24.28,17c.53,0,1.11,0,1.7,0"/><path class="a0d14b09-9cc9-4d92-9dac-b6a6eed7b256" d="M43,17.24c.22-.63.85.08,1,.45a7.26,7.26,0,0,1,.4,1.93c0,.51.19,1.86-.14,1.89s-.29-.92-.31-1.4c-.05-1.15-.24-2.37-1-2.87"/><path class="a0d14b09-9cc9-4d92-9dac-b6a6eed7b256" d="M19.62,17.87c0-1,.94.28,0,0"/><path class="a0d14b09-9cc9-4d92-9dac-b6a6eed7b256" d="M45.12,17.65c.07.45.72,1.74-.09,1.84a6.14,6.14,0,0,1-.23-1.84.58.58,0,0,1,.32,0"/><path class="a0d14b09-9cc9-4d92-9dac-b6a6eed7b256" d="M13.75,23.48c-.14.11-.43,1.11-.72,1.12-.51,0,0-.75-.09-.67a5.07,5.07,0,0,1,.4-.67,27.08,27.08,0,0,1,1.93-2.43,12.82,12.82,0,0,1,3-2.56s.09,0,.09-.09c.83.28-.38.82-.67,1a21.63,21.63,0,0,0-3.94,4.26"/><path class="a0d14b09-9cc9-4d92-9dac-b6a6eed7b256" d="M27.24,19.76c0,.57-.48,1-.81,1.39-.67.82-1.25,1.71-1.88,2.6-.3.42-.5,1-1,1.21-.26-.53.32-1,.58-1.35.86-1.25,1.87-2.68,2.78-3.85a.23.23,0,0,1,.36,0"/><path class="a0d14b09-9cc9-4d92-9dac-b6a6eed7b256" d="M36.42,24.6c-.35.07-.48-.33-.63-.54s-.38-.37-.53-.58-.34-.73-.59-1a5.48,5.48,0,0,0-2.28-1.53c-.28-.09-.66-.1-.81-.45a.24.24,0,0,0,.05-.18s0,0,.09,0,.11-.08.13,0a6.7,6.7,0,0,1,2.6,1.34c.19.17.42.33.54.45.26.28.38.74.63,1.08s1,.87.8,1.48"/><path class="a0d14b09-9cc9-4d92-9dac-b6a6eed7b256" d="M30.51,20.47a8.62,8.62,0,0,1-1.21,2l-.72.9c-.19.23-.47.71-.85.53.07-.65.7-1.09,1.12-1.61s.82-1.33,1.3-1.89a.43.43,0,0,1,.36.09"/><path class="a0d14b09-9cc9-4d92-9dac-b6a6eed7b256" d="M28.27,21.37a13.75,13.75,0,0,1-1.75,2.2l-.9,1.08c-.28.33-.46.91-1,1-.2-.46.3-.87.58-1.21.8-1,1.79-2.27,2.64-3.14,0,0,.12,0,.14-.09a.34.34,0,0,1,.27.18"/><path class="a0d14b09-9cc9-4d92-9dac-b6a6eed7b256" d="M26.25,29.76A.76.76,0,0,0,25,30a1.31,1.31,0,0,0,.31,1.26c1.19.24,1.47-.87,1-1.53m-7-6.68c.16.1-.23.37-.22.44a3.7,3.7,0,0,0,.72.72c.76.66,1.59,1.29,2.24,1.93,1,1,2.06,1.87,2.91,2.69a1.88,1.88,0,0,1,2.06,0c.27.81.74,1.86.18,2.65a2,2,0,0,1-1.39.72c-1.34.07-2-1.29-1.57-2.74-1.94-1.91-4-3.72-6.05-5.52a.51.51,0,0,1-.85.36c-.13-.11-.09-.32-.18-.58-.15-.48-1-1.79-.13-1.89h0c.77.33,1.8.55,2.24,1.22"/><path class="a0d14b09-9cc9-4d92-9dac-b6a6eed7b256" d="M9.44,23.93c.15.25-.06.52-.13.76a14.3,14.3,0,0,0-.4,2.78,31.77,31.77,0,0,0-.23,4,28.07,28.07,0,0,0,.85,5.21c.12.47.53,1,.18,1.43-.49-.16-.5-.9-.62-1.43a29.32,29.32,0,0,1-.9-5.3,29.24,29.24,0,0,1,.22-3.9c.06-.71.24-3.5.81-3.64a.26.26,0,0,1,.22.05"/><path class="a0d14b09-9cc9-4d92-9dac-b6a6eed7b256" d="M31.67,24.24h.23a44.89,44.89,0,0,1-.68,6.91c0,.24-.11,2.12-.44,2.11s-.21-.66-.18-1c.08-.91.26-2.36.4-3.27.26-1.77.33-2.91.49-4.4,0,0,.09-.13.05-.22a.23.23,0,0,1,.13-.14"/><path class="a0d14b09-9cc9-4d92-9dac-b6a6eed7b256" d="M36.56,25c.6-.19,0,.93-.18.27,0-.17,0-.22.18-.27"/><path class="a0d14b09-9cc9-4d92-9dac-b6a6eed7b256" d="M12.67,25.19a.27.27,0,0,1-.27.35.59.59,0,0,0-.18-.13c-.1-.34.32-.39.45-.22"/><path class="a0d14b09-9cc9-4d92-9dac-b6a6eed7b256" d="M34.27,38.56c-.18-.37.29-.6.45-.81a12.09,12.09,0,0,0,1.66-2.65,15.17,15.17,0,0,0,1.16-4.57,7.54,7.54,0,0,0-.45-3.28c-.14-.44-.54-1.46-.35-1.75a.3.3,0,0,1,.13-.09s0,0,0,0c.44.46.43,1.15.63,1.75A7.37,7.37,0,0,1,38,30.48,13.22,13.22,0,0,1,37.54,33a16,16,0,0,1-.67,2.29A13.17,13.17,0,0,1,35.12,38c-.19.25-.48.69-.85.54"/><path class="a0d14b09-9cc9-4d92-9dac-b6a6eed7b256" d="M18,25.81a2.12,2.12,0,0,1-.44,1c-.37.61-.67,1.21-1,1.84-.15.27-.25.7-.62.76-.32-.24,0-.64.13-.89.49-.87,1.09-2,1.62-2.79a.4.4,0,0,1,.35.09"/><path class="a0d14b09-9cc9-4d92-9dac-b6a6eed7b256" d="M42.11,26.62c.42-.5.62.61.77,1.21A20.88,20.88,0,0,1,43.1,33a12.08,12.08,0,0,1-1.39,4.8c-.21.47-.36,1.35-.72,1.31-.58-.08.08-.88.14-1s.09-.35.18-.54a13.12,13.12,0,0,0,1.3-4.4,21.56,21.56,0,0,0-.18-5.2,6.28,6.28,0,0,1-.32-1.35"/><path class="a0d14b09-9cc9-4d92-9dac-b6a6eed7b256" d="M6.89,26.85h.22c.11,1.23-.14,2.71,0,4.12a11.51,11.51,0,0,0,.27,1.66c.11.49.51,1,.27,1.4-.51-.1-.64-.84-.77-1.44A17.53,17.53,0,0,1,6.75,27a.23.23,0,0,1,.14-.13"/><path class="a0d14b09-9cc9-4d92-9dac-b6a6eed7b256" d="M12,26.85a4.66,4.66,0,0,1-.09,1.7c-.15,1.87-.38,4.07.18,5.7A18.81,18.81,0,0,0,13,36.31c.18.35.58.66.5,1.08-.71.06-.87-.91-1.17-1.53a8.85,8.85,0,0,1-1.07-3.18,19.43,19.43,0,0,1,.13-3.19A8.83,8.83,0,0,1,11.68,27c0-.12.15-.16.32-.13"/><path class="a0d14b09-9cc9-4d92-9dac-b6a6eed7b256" d="M33,27.07a13.83,13.83,0,0,1-.27,2.6c0,.43-.06,1-.09,1.44s0,1.19-.31,1.16-.15-1.08-.14-1.39a17.79,17.79,0,0,1,.5-3.81c.1.06.17-.12.18,0Z"/><path class="a0d14b09-9cc9-4d92-9dac-b6a6eed7b256" d="M34.09,28.91c-.23.4.07,1.62-.4,1.66s-.19-1.44,0-1.75a.39.39,0,0,1,.36.09"/><path class="a0d14b09-9cc9-4d92-9dac-b6a6eed7b256" d="M18.36,29.63s0,0,.05,0c.3.17.18.63.18.9,0,2,.08,4,.26,5.92,0,.26.21.61-.09.77-.51-.17-.4-1.09-.44-1.66a32,32,0,0,1-.14-5.88l.18-.09"/><path class="a0d14b09-9cc9-4d92-9dac-b6a6eed7b256" d="M43.91,30.44c.53-.54.53,1.24.53,1.7a10.86,10.86,0,0,1-.18,1.48c-.06.47,0,1.31-.35,1.3s-.18-.85-.14-1.16a21.33,21.33,0,0,0,.14-3.32"/><path class="a0d14b09-9cc9-4d92-9dac-b6a6eed7b256" d="M19.48,33.58a5.93,5.93,0,0,1,.36,1.88c.06.37.26.88-.13,1-.36,0-.24-.39-.27-.63a8.59,8.59,0,0,1-.23-2.19c.1,0,.13-.12.27-.09"/><path class="a0d14b09-9cc9-4d92-9dac-b6a6eed7b256" d="M27.41,33.85a5,5,0,0,1-1.21,1.66c-1.08,1.27-2.1,2.66-3.09,4.08-.15.22-.36.64-.71.58-.2-.33.14-.7.31-.94.54-.78,1.22-1.55,1.84-2.33A31.36,31.36,0,0,1,27,33.8s.12,0,.14-.09.17.1.26.14"/><path class="a0d14b09-9cc9-4d92-9dac-b6a6eed7b256" d="M27.06,36.49a2.8,2.8,0,0,1-.72,1.12c-.28.35-.64.66-.85,1s-.2.8-.68.72c-.18-.42.33-1,.72-1.53s.95-1.35,1.26-1.39a.37.37,0,0,1,.27.09"/><path class="a0d14b09-9cc9-4d92-9dac-b6a6eed7b256" d="M33.82,39.19a.27.27,0,0,1-.18.26c-.14,0-.17-.06-.27-.08-.12-.42.39-.45.45-.18"/><path class="a0d14b09-9cc9-4d92-9dac-b6a6eed7b256" d="M32.39,40.13c-.09,1-.83-.38,0,0"/><path class="a0d14b09-9cc9-4d92-9dac-b6a6eed7b256" d="M31.4,40.62c.08.39-.52.58-.85.72s-.42.1-.63.18a10.74,10.74,0,0,1-2.6.67c-.43.05-.88.05-1.25.09a12,12,0,0,1-3.94-.36A4.52,4.52,0,0,1,21,41.43c-.43-.21-1.09-.22-1.07-.76a1.18,1.18,0,0,1,.22-.14c1.82,1.25,5.45,1.63,8.11,1,.37-.09.76-.14,1.08-.23.74-.2,1.4-.82,2.1-.67"/><path class="a0d14b09-9cc9-4d92-9dac-b6a6eed7b256" d="M33,46.28c-.11.44-.7.48-1.13.62a13,13,0,0,1-1.25.45,22.76,22.76,0,0,1-3.54.41,14.29,14.29,0,0,1-6.27-.9c-.31-.12-.83-.17-.63-.63a8.45,8.45,0,0,1,1.79.58,13.43,13.43,0,0,0,2.06.45,20.16,20.16,0,0,0,3,0,23.3,23.3,0,0,0,3-.31c1-.18,1.91-.65,2.69-.81.17,0,.15.1.23.14"/></svg>