<?xml version="1.0" encoding="utf-8"?>
<!-- Generator: Adobe Illustrator 24.0.0, SVG Export Plug-In . SVG Version: 6.00 Build 0)  -->
<svg version="1.1" id="Layer_1" xmlns="http://www.w3.org/2000/svg" xmlns:xlink="http://www.w3.org/1999/xlink" x="0px" y="0px"
	 width="618px" height="114px" viewBox="0 0 618 114" style="enable-background:new 0 0 618 114;" xml:space="preserve">
<path d="M557.7,106.2V54.7H613v-5.4h-55.3V7.8h59.1V2.4H554l0,0h-6.3l0,0h-0.3V3l-35.6,103.2h-0.2L476.2,2.3h-1.7V2.1h-4.4v0.2h-0.6
	l0,0h-74.6l0,0H388l-19.9,52.6V2.3h-10.5v80l-3.4,9L296,2.3h-8v9c-0.6-0.8-1.3-1.7-2.1-2.3c-5-4.4-13-6.7-23.7-6.7h-42.5l0,0h-49h-8
	H91.5v10.1h36.2V105H88.1L76.8,75.1V2.6H66.3v45l-17-45h-6.9L0.9,110.9h6.7l14-36.7h44.6v36.7h61.4h5.7h0.8V12.7h28.5v98.2h63.9l0,0
	l0,0v-49h35v-2.2c6.1,0,10.7,0.6,14.2,1.9c3.6,1.3,6.3,3.1,8.2,5.4c1.9,2.3,3.1,5,3.8,8.4v35.2h10.7V15.7l53.4,81.7l-5.4,14.2h6.7
	l2.5-8.2l4.6,7.1h7.5v-40h48l13,41.3h0.4l0,0h6.3l0,0l0,0l0,0V12.1h34.3v99.6h4.4V16.4l33.5,95.5h7.3l32-90.7v90.7h70.2v-5.4h-59.5
	L557.7,106.2L557.7,106.2z M23,70.2L46,9h0.2l20.1,55.7v5.7L23,70.2L23,70.2z M76.8,92.8l4.6,11.9h-4.6V92.8z M173.1,57.2H215v-5.9
	h-41.9V7.9h46.7v97l-46.7-0.2V57.2z M261.3,56.8v-2.1h-34.6V8h11.9l0,0h24.3V5.3c9.8,0,17,2.1,21.4,6.5c1.5,1.5,2.9,3.4,3.8,5.2
	v25.6c-1.7,3.1-3.6,5.7-6.1,7.7c-2.7,2.3-5.9,3.8-9.4,4.8C268.9,56.4,265.1,56.8,261.3,56.8z M282.1,61.6c-2.7-1.5-6.3-2.7-10.5-3.4
	V58c7.1-1.7,12.6-4.8,16.5-9.6v18.8C286.5,64.9,284.6,63.1,282.1,61.6z M368.3,67l23-58.4h0.2L413.7,67H368.3z M398.3,12h30.8v82.7
	L398.3,12z"/>
</svg>
