<?xml version="1.0" encoding="utf-8"?>
<!-- Generator: Adobe Illustrator 24.0.0, SVG Export Plug-In . SVG Version: 6.00 Build 0)  -->
<svg version="1.1" id="Layer_1" xmlns="http://www.w3.org/2000/svg" xmlns:xlink="http://www.w3.org/1999/xlink" x="0px" y="0px"
	 width="498px" height="114px" viewBox="0 0 498 114" style="enable-background:new 0 0 498 114;" xml:space="preserve">
<path d="M486.8,4.2v93.2L426.8,4.2H419v27.9c-1.9-4.6-4.6-8.6-7.5-12.4c-4.2-4.8-9.2-8.6-15.1-11.5C390.5,5.5,383.7,4,376.2,4v2.7
	c-6.7,0-12.6,1.5-17.8,4.2s-9.4,6.5-13,11.1c-3.4,4.6-5.9,9.8-7.7,15.7V4h-4.2l0,0h-75.2l0,0h-5l-25.3,67.2c-0.2-0.6-0.6-1.5-1-2.1
	c-1.5-2.5-3.4-4.6-6.1-6.1c-2.7-1.5-6.1-2.7-10.3-3.1v-0.2c7.1-1.7,12.6-5,16.3-9.6c3.8-4.8,5.7-10.7,5.4-18
	c-0.2-9.4-2.7-16.3-7.5-20.7c-4.8-4.4-12.6-6.7-23.2-6.7h-41.5V5h-4.8v62.6c0,5.9-0.6,11.3-1.7,16.1c-1,4.8-2.9,8.8-5.7,12.1
	c-2.5,3.4-6.1,5.9-10.3,7.7c-4.2,1.9-9.4,2.7-15.7,2.7c-4.8,0-9-0.6-12.6-1.9c-3.4-1.3-6.3-3.1-8.8-5.2c-2.3-2.1-4.2-4.6-5.7-7.5
	c-1.5-2.7-2.5-5.7-3.1-8.6c-0.8-2.9-1.3-5.7-1.5-8.4c-0.2-2.7-0.2-5-0.2-7.1V5h-6.3v62.6c0,0.4,0,0.8,0,1l0,0
	c-0.2,4.8-1.5,9.6-3.4,14c-1.9,4.6-4.6,8.6-7.7,11.9c-3.1,3.6-6.9,6.3-11.3,8.4c-4.2,2.1-8.8,3.1-13.8,3.1v2.7
	c-6.7,0.2-12.8-1.3-18.2-4c-5.4-2.7-9.8-6.5-13.6-11.1C11.9,89,9,83.5,7.1,77.5C5.2,71.4,4,64.9,4,58.4C4,53,4.6,47.1,6.1,41
	c1.5-6.3,3.8-11.9,7.3-17.2c3.4-5.2,8-9.6,13.6-13.2c5.7-3.6,12.6-5.4,20.9-5.7v2.7c4.2,0,8.4,0.6,12.1,1.9
	c3.8,1.3,7.3,3.1,10.5,5.7c3.1,2.5,4.6,4,6.9,7.3l4.4-4.2c-1.9-2.9-4.4-5.4-7.3-7.7c-2.9-2.3-6.7-4.4-10.9-6.1
	c-4.4-1.7-9.4-2.5-15.5-2.5l0,0l0,0l0,0l0,0c-8.6,0.2-15.9,1.9-21.8,5.4c-6.1,3.6-10.9,8-14.5,13.4c-3.8,5.4-6.3,11.5-8,18
	c-1.7,6.7-2.3,13.2-2.3,19.5C1.7,65.9,3,73.3,5.3,79.8s5.7,12.1,9.6,16.8c4,4.6,9,8.4,14.7,10.9s11.7,3.8,18.4,3.8l0,0
	c5.7,0,10.7-1,15.7-3.1c4.8-2.1,9.2-5.2,13-9c3.8-3.8,6.7-8.4,9.2-13.6c0-0.2,0.2-0.2,0.2-0.4c0.8,3.1,2.1,6.3,3.6,9.4
	c1.7,3.1,3.8,6.1,6.5,8.6s6.3,4.6,10.5,6.1s9.4,2.3,15.3,2.3c7.5,0,13.8-1,18.8-3.4c5-2.3,9-5.4,12.1-9.4c2.9-4,5.2-8.6,6.5-14
	c0.2-0.8,0.4-1.7,0.4-2.3v29.3h6.7V63.4h34.1v-2.1c5.9,0,10.5,0.6,14,1.9s6.1,3.1,8,5.4c1.5,1.9,2.7,4.2,3.4,6.9l-13.5,36.5h6.7
	l8.4-21.8c0,1.5,0,3.1,0,5c0,2.1,0.2,4.2,0.2,6.5c0.2,2.1,0.4,4.2,0.6,5.9c0.2,1.9,0.6,3.4,1,4.4h3.1c-0.4-0.6-0.8-1.9-1-3.8
	s-0.4-3.8-0.6-6.1c-0.2-2.3-0.4-4.4-0.4-6.7c0-2.3-0.2-4.2-0.2-5.7c0-2.3,0-4.4-0.2-6.5l2.9-7.7h46.5l13.4,36.4h0.4l0,0h6.3v-98H333
	v98h4.2V78.2c1.9,6.1,4.4,11.3,7.7,15.7c3.6,4.6,7.7,8.4,13,10.9c5.2,2.7,11.1,4,17.8,4v2.9c7.5,0,14.2-1.5,20.3-4.2
	c5.9-2.7,10.9-6.5,15.1-11.5c3.1-3.6,5.7-7.7,7.5-12.4v27.9h10.1V17.7l60.5,93.8h7.3V4h-9.8L486.8,4.2L486.8,4.2z M200.5,58.5v-2.1
	h-33.9V10.1h35.2V7.4c9.6,0,16.5,2.1,20.7,6.5c4.2,4.2,6.5,10.3,6.5,17.8c0,4.6-0.8,8.8-2.3,12.1c-1.7,3.4-3.8,6.1-6.3,8.4
	c-2.7,2.3-5.7,3.8-9.2,4.8C207.8,58,204.3,58.5,200.5,58.5z M234,71.6l22.4-60.9h0.2l21.6,60.9H234z M263.5,13.8h30.2v81.3
	L263.5,13.8z M414.9,76.7c-1.9,5.9-4.6,10.9-8.2,15.3c-3.6,4.4-8,7.7-13,10.5c-5.2,2.5-11.1,4-17.6,4l0,0c-6.1,0-11.5-1.3-16.1-3.6
	c-4.8-2.3-8.8-5.7-12.1-10.1c-3.4-4.2-5.9-9.4-7.7-15.3c-1.3-4.2-2.1-8.4-2.5-13.2V51.7c0.4-4.6,1.3-9,2.5-13.2
	c1.9-5.9,4.4-11.1,7.7-15.3c3.4-4.2,7.3-7.5,12.1-10.1c4.8-2.5,10.3-3.6,16.1-3.6l0,0c6.5,0,12.6,1.3,17.6,4
	c5.2,2.5,9.4,6.1,13,10.5s6.3,9.4,8.2,15.3s2.9,12.1,2.9,18.6C417.9,64.7,416.8,70.8,414.9,76.7z"/>
</svg>
