<?xml version="1.0" encoding="utf-8"?>
<!-- Generator: Adobe Illustrator 24.0.0, SVG Export Plug-In . SVG Version: 6.00 Build 0)  -->
<svg version="1.1" id="Layer_1" xmlns="http://www.w3.org/2000/svg" xmlns:xlink="http://www.w3.org/1999/xlink" x="0px" y="0px"
	 width="346.6px" height="114px" viewBox="0 0 346.6 114" style="enable-background:new 0 0 346.6 114;" xml:space="preserve">
<path d="M300.3,105.4l-11.7-29.9V3.3h-10.9v44.8L259.9,3.3h-7.3h-82.3h-0.6V27c-0.8-1.9-1.7-3.8-2.7-5.4c-2.7-4.4-6.1-8.2-10.1-11.3
	s-8.6-5.4-13.6-7.1S133,0.7,127.4,0.7v2.7c-7.1,0-13.6,1.5-18.8,4.4c-5.4,2.9-10.1,6.7-13.8,11.7c-3.8,4.8-6.5,10.7-8.4,17.2
	c-0.2,1-0.4,1.9-0.8,2.9V3.3H81v25.8c-1.5-3.4-3.1-6.3-5.2-9.2c-3.8-5-9-9-15.3-12.1C54,4.9,46,3.2,36.4,3.2H1v108.1h35.2
	c8.6,0,16.1-1.5,22.4-4.2c6.3-2.7,11.5-6.5,15.7-11.5c2.9-3.4,5.2-7.1,6.9-11.3v27h4.6V74.8c0.2,1,0.4,1.9,0.8,2.9
	c1.9,6.5,4.8,12.1,8.4,17.2c3.8,4.8,8.4,8.8,13.8,11.5c5.2,2.7,11.5,4.4,18.4,4.4v2.5c4.8,0,9.2-0.6,13.6-1.9
	c4.4-1.3,8.4-2.9,11.9-5c3.6-2.1,6.7-4.8,9.2-8c2.7-3.1,4.6-6.7,5.9-10.7h0.2v23h1.3h4.6V53.7V13.1h33.9v98h0.8h7.1l14.7-36.7h46.5
	v36.7h17.8h7.1h43.8v-5.7L300.3,105.4L300.3,105.4z M75.6,79.8c-2.5,6.3-5.9,11.1-10.1,14.9c-4.2,3.8-8.8,6.3-13.8,8
	s-10.3,2.3-15.3,2.3H11.5V8.3H35c2.7,0,5.7,0.2,8.8,0.6c3.4,0.4,6.5,1,9.8,2.1c3.4,1,6.5,2.7,9.6,4.8s5.9,4.8,8.2,8.4
	c2.3,3.6,4.2,8,5.7,13.2s2.1,11.5,2.1,18.8C79.4,65.8,78.1,73.6,75.6,79.8z M169.4,53.7h-41v10.1h39.8c0.2,6.7-0.4,12.8-2.3,18
	c-1.9,5.4-4.6,10.1-8.2,13.8c-3.6,3.8-8,6.9-13,9c-5.2,2.1-10.9,3.1-17.4,3.1c-6.5,0-11.9-1.5-17.2-4c-5-2.5-9.4-6.1-13-10.5
	s-6.3-9.8-8.2-16.1C87,70.8,86,64.1,86,56.8s1-14.2,2.9-20.3c1.9-6.3,4.6-11.5,8.2-16.1c3.6-4.4,8-8,13-10.5s10.9-3.8,17.4-3.8l0,0
	l0,0c10.1,0,18.2,2.7,24.7,8c6.5,5.4,11.1,12.8,13.6,22.2h3.6L169.4,53.7L169.4,53.7z M215.1,96.8V13.1h33.5L215.1,96.8z
	 M277.5,70.7h-45.2l24-60.9h0.2l20.9,55.5L277.5,70.7L277.5,70.7z M288.6,105.4V93.8l4.6,11.7H288.6z"/>
</svg>
