<?xml version="1.0" encoding="utf-8"?>
<!-- Generator: Adobe Illustrator 24.0.0, SVG Export Plug-In . SVG Version: 6.00 Build 0)  -->
<svg version="1.1" id="b9d5acf8-f4c1-4746-8ad7-01d2cd156420"
	 xmlns="http://www.w3.org/2000/svg" xmlns:xlink="http://www.w3.org/1999/xlink" x="0px" y="0px" viewBox="0 0 32 32"
	 style="enable-background:new 0 0 32 32;" xml:space="preserve">
<style type="text/css">
	.st0{fill:#FFFFFF;}
</style>
<title>Logos - Labels</title>
<g>
	<path class="st0" d="M19.5,32h0.3v-1.3h0.5L21,32h0.3l-0.8-1.4c0.1,0,0.2,0,0.2-0.1c0.1,0,0.2-0.1,0.2-0.1c0.2-0.1,0.3-0.3,0.2-0.6
		c0-0.1,0-0.2-0.1-0.3c0-0.1-0.1-0.2-0.2-0.2c-0.1-0.1-0.1-0.1-0.2-0.1c-0.1,0-0.1-0.1-0.2-0.1c-0.1,0-0.1,0-0.2,0h-0.9L19.5,32z
		 M19.7,29.4h0.6c0.1,0,0.2,0,0.3,0.1c0.1,0,0.1,0.1,0.2,0.1c0,0,0.1,0.1,0.1,0.2c0,0.1,0,0.2,0,0.3c0,0.1-0.1,0.1-0.1,0.2
		c-0.1,0.1-0.1,0.1-0.2,0.1c-0.1,0-0.2,0.1-0.3,0h-0.6L19.7,29.4z M16.6,32h1.8v-0.2h-1.5v-1.1h1.4v-0.2h-1.4v-1h1.5v-0.2h-1.7V32z
		 M13.7,32h1.8v-0.2H14v-1.1h1.4v-0.2H14v-1h1.5v-0.2h-1.7L13.7,32z M10.9,30.6h0.6c0.1,0,0.2,0,0.2,0c0.1,0,0.1,0.1,0.2,0.1
		c0.1,0,0.1,0.1,0.2,0.2c0,0.1,0.1,0.2,0.1,0.3c0,0.1,0,0.1,0,0.2c0,0.1-0.1,0.1-0.1,0.2c-0.1,0.1-0.1,0.1-0.2,0.1
		c-0.1,0-0.2,0.1-0.4,0.1h-0.6L10.9,30.6z M10.9,29.4h0.6c0.1,0,0.2,0,0.2,0c0.1,0,0.1,0,0.2,0.1c0.1,0,0.1,0.1,0.1,0.2
		c0,0.1,0.1,0.2,0,0.2c0,0.1,0,0.1,0,0.2c0,0.1-0.1,0.1-0.1,0.2c-0.1,0.1-0.1,0.1-0.2,0.1c-0.1,0-0.2,0.1-0.3,0h-0.5L10.9,29.4z
		 M10.7,32h0.9c0.1,0,0.2,0,0.3,0c0.1,0,0.2-0.1,0.3-0.1c0.1-0.1,0.2-0.1,0.2-0.2c0.1-0.2,0.1-0.4,0-0.7c-0.1-0.2-0.2-0.3-0.3-0.4
		c-0.1,0-0.2-0.1-0.3-0.1l0,0c0.1,0,0.3-0.1,0.4-0.2c0.1-0.1,0.1-0.2,0.1-0.4c0-0.1,0-0.3-0.1-0.4c-0.1-0.1-0.1-0.2-0.2-0.2
		c-0.1-0.1-0.2-0.1-0.3-0.1c-0.1,0-0.2,0-0.3,0h-0.8V32z"/>
	<path class="st0" d="M17.9,21.2c-0.4,0-0.8-0.1-1.2-0.2l0,0c-0.8-0.4-1.4-1.2-1.7-2.1c-0.3,0.2-0.7,0.3-1.1,0.4
		c-0.4,0-0.8-0.1-1.1-0.3l0,8.7l6.3,0l0-6.8C18.7,21.1,18.3,21.2,17.9,21.2L17.9,21.2"/>
	<path class="st0" d="M15.3,12.1c0.6-1,0.9-1.2,1.1-1.4c0,0,0.1-0.1,0.1-0.1c0.5-0.3,1.2-0.4,1.7-0.1c0.3,0.1,0.6,0.3,0.9,0.6
		l0.1-11l-4.9,0c-0.7,1.8-1.4,3.5-4.7,3.4v3.1h3.3l0,5.6c0.4-0.3,0.8-0.5,1.3-0.5C14.6,11.7,15,11.8,15.3,12.1"/>
	<path class="st0" d="M24.1,14.4L24.1,14.4L24.1,14.4L24.1,14.4"/>
	<path class="st0" d="M10.6,16.9c0,0.2-0.2,0.3-0.3,0.2c-0.4,0-0.9-0.2-1.2-0.5l-0.2-0.2l0.3-0.9c0.1-0.3,0.2-0.7,0.3-1
		c0-0.2-0.1-0.3-0.2-0.4C9.1,14,9,14,8.8,14H8.7c-0.1,0-0.1,0-0.1-0.1c0.2-0.2,0.4-0.3,0.7-0.3c0.3,0,0.6,0.2,0.8,0.4
		c0.3,0.3,0.4,0.7,0.5,1.2C10.7,15.8,10.7,16.3,10.6,16.9 M10.1,18.1c-0.2,0.3-0.4,0.6-0.8,0.8c-0.2,0.1-0.4,0.1-0.5,0
		c-0.1-0.2-0.1-0.4-0.2-0.6c-0.1-0.2-0.1-0.4-0.1-0.5c0-0.1,0.2,0,0.4,0C9.2,17.9,9.5,18,9.8,18h0.4L10.1,18.1z M23.3,15.1
		c0-0.1,0.1-0.1,0.1-0.2c0.4-0.6,0.7-0.8,0.9-0.8c0.1,0,0.1,0.1,0,0.3c-0.1,0.3-0.4,0.5-0.7,0.7c-0.1,0.1-0.2,0.1-0.4,0.2
		c-0.1,0-0.1,0-0.1,0C23.2,15.2,23.2,15.2,23.3,15.1 M27.2,14.6c-0.2,0-0.3,0.1-0.4,0.3c-0.2,0.3-0.4,0.5-0.6,0.8
		c-0.9,1.7-1.8,2.6-2.6,2.8c-0.1,0-0.3,0-0.4-0.1c-0.1-0.1-0.2-0.2-0.3-0.3c-0.1-0.4-0.2-0.9,0-1.3l0.1-0.4l0.4-0.2
		c0.5-0.2,1-0.5,1.4-0.9c0.2-0.2,0.4-0.5,0.4-0.8c0.2-0.5,0.1-1.1-0.2-1.6c-0.2-0.2-0.6-0.4-0.9-0.4c-0.3,0-0.7,0-1,0.1
		c-0.5,0.3-0.9,0.7-1.2,1.3c-0.3,0.5-0.5,1-0.7,1.5c-0.1,0.1-0.2,0.3-0.2,0.4c-0.3,0.7-0.8,1.4-1.2,2c-0.3,0.4-0.6,0.8-1,1.1
		c-0.3,0.2-0.5,0.2-0.7,0c-0.1-0.1-0.1-0.5,0-1.3c0.1-0.8,0.1-1.6,0.3-2.4c0.3-1.6,0.3-2.7,0.1-3.1c-0.1-0.2-0.3-0.4-0.5-0.5
		c-0.2-0.1-0.4-0.1-0.6,0c-0.2,0.2-0.7,1-1.6,2.4c-0.4,0.7-0.6,1.2-0.8,1.3l-0.2,0.3l0-0.4c0-0.3,0.1-0.6,0.1-1
		c0.1-0.9-0.1-1.3-0.6-1.3c-0.3,0-0.6,0.2-0.7,0.5c-0.2,0.4-0.3,0.9-0.3,1.3c-0.1,0.4-0.1,0.8-0.2,1.1c-0.1,0.1-0.2,0.1-0.4,0.2
		c-0.4,0.3-0.9,0.6-1.4,0.8c0-0.3-0.1-0.6,0-0.9c0-0.5,0-1-0.2-1.4c-0.2-0.6-0.6-1.2-1.1-1.5c-0.4-0.2-1-0.2-1.4,0
		c-0.9,0.4-1.3,1.2-1.2,2.4c0,0.4,0,0.7-0.1,1C7.1,17,7,17.3,7,17.7c0,0.4,0,0.8,0.1,1.2c0.1,0.5,0.4,0.9,0.9,1.2
		c0.4,0.2,0.8,0.2,1.2,0c0.7-0.4,1.3-1.1,1.6-1.9c0.1-0.2,0.2-0.4,0.4-0.6c0.3-0.2,0.6-0.4,0.9-0.6c0.3-0.2,0.6-0.4,0.8-0.6
		c0,0.4,0.1,0.7,0.2,1c0.1,0.3,0.4,0.4,0.7,0.4c0.3,0,0.5-0.2,0.6-0.4c0.2-0.3,0.5-0.9,1-1.9c0.6-1.2,1-1.9,1-2l-0.1,0.6
		c-0.5,1.9-0.6,3.3-0.3,4.1c0.1,0.6,0.5,1.1,1,1.4c0.2,0.1,0.4,0.1,0.6,0.1c0.5-0.1,0.9-0.3,1.2-0.6c0.7-0.7,1.3-1.5,1.8-2.4l0-0.1
		c-0.1,0.6,0,1.2,0.2,1.7c0.1,0.4,0.3,0.7,0.6,1c0.2,0.2,0.5,0.4,0.9,0.5c0.1,0,0.3,0,0.4,0c0.2,0,0.5-0.1,0.7-0.3
		c0.2-0.1,0.4-0.3,0.6-0.4c0.6-0.5,1.4-1.8,2.5-3.6c0.1-0.2,0.3-0.5,0.5-0.7C27.5,14.8,27.5,14.6,27.2,14.6"/>
</g>
</svg>
